<svg xmlns="http://www.w3.org/2000/svg" xmlns:xlink="http://www.w3.org/1999/xlink" version="1.1" width="256" height="256" viewBox="0 0 256 256" xml:space="preserve">

<defs>
</defs>
<g style="stroke: none; stroke-width: 0; stroke-dasharray: none; stroke-linecap: butt; stroke-linejoin: miter; stroke-miterlimit: 10; fill: none; fill-rule: nonzero; opacity: 1;" transform="translate(1.4065934065934016 1.4065934065934016) scale(2.81 2.81)" >
	<path d="M 45 36.381 c -0.552 0 -1 -0.448 -1 -1 V 12.595 c 0 -0.552 0.448 -1 1 -1 s 1 0.448 1 1 v 22.786 C 46 35.933 45.552 36.381 45 36.381 z" style="stroke: none; stroke-width: 1; stroke-dasharray: none; stroke-linecap: butt; stroke-linejoin: miter; stroke-miterlimit: 10; fill: rgb(0,0,0); fill-rule: nonzero; opacity: 1;" transform=" matrix(1 0 0 1 0 0) " stroke-linecap="round" />
	<path d="M 48.581 32.64 c -1.226 0 -2.376 -0.276 -3.362 -0.852 c -0.149 -0.087 -0.272 -0.21 -0.359 -0.359 c -1.843 -3.154 -0.62 -8.006 2.908 -11.536 c 3.527 -3.53 8.38 -4.755 11.535 -2.913 c 0.149 0.087 0.272 0.211 0.359 0.359 c 1.843 3.155 0.62 8.007 -2.908 11.536 C 54.327 31.303 51.277 32.64 48.581 32.64 z M 46.46 30.187 c 2.367 1.166 6.121 0.033 8.879 -2.725 c 2.757 -2.757 3.891 -6.514 2.722 -8.88 c -2.367 -1.17 -6.122 -0.033 -8.879 2.725 C 46.425 24.066 45.291 27.823 46.46 30.187 z" style="stroke: none; stroke-width: 1; stroke-dasharray: none; stroke-linecap: butt; stroke-linejoin: miter; stroke-miterlimit: 10; fill: rgb(0,0,0); fill-rule: nonzero; opacity: 1;" transform=" matrix(1 0 0 1 0 0) " stroke-linecap="round" />
	<path d="M 45 13.595 c -0.085 0 -0.171 -0.011 -0.254 -0.033 c -2.377 -0.624 -4.102 -3.469 -4.102 -6.765 s 1.725 -6.141 4.102 -6.765 c 0.166 -0.044 0.342 -0.044 0.508 0 c 2.377 0.624 4.103 3.469 4.103 6.765 s -1.726 6.141 -4.103 6.765 C 45.171 13.584 45.085 13.595 45 13.595 z M 45 2.05 c -1.36 0.547 -2.356 2.52 -2.356 4.747 S 43.64 10.996 45 11.543 c 1.36 -0.547 2.357 -2.52 2.357 -4.747 S 46.36 2.597 45 2.05 z" style="stroke: none; stroke-width: 1; stroke-dasharray: none; stroke-linecap: butt; stroke-linejoin: miter; stroke-miterlimit: 10; fill: rgb(0,0,0); fill-rule: nonzero; opacity: 1;" transform=" matrix(1 0 0 1 0 0) " stroke-linecap="round" />
	<path d="M 42.12 25.813 c -2.224 0 -4.732 -1.095 -6.722 -3.087 c -2.903 -2.904 -3.901 -6.91 -2.372 -9.525 c 0.087 -0.149 0.21 -0.272 0.359 -0.359 c 2.616 -1.528 6.622 -0.528 9.524 2.376 c 2.903 2.904 3.901 6.91 2.373 9.525 c -0.087 0.149 -0.21 0.272 -0.359 0.359 C 44.1 25.583 43.14 25.813 42.12 25.813 z M 34.629 14.446 c -0.859 1.834 0.043 4.726 2.183 6.866 c 2.14 2.141 5.031 3.045 6.866 2.186 c 0.859 -1.834 -0.043 -4.726 -2.184 -6.866 C 39.353 14.491 36.462 13.588 34.629 14.446 z" style="stroke: none; stroke-width: 1; stroke-dasharray: none; stroke-linecap: butt; stroke-linejoin: miter; stroke-miterlimit: 10; fill: rgb(0,0,0); fill-rule: nonzero; opacity: 1;" transform=" matrix(1 0 0 1 0 0) " stroke-linecap="round" />
	<path d="M 45 89.998 c -1.371 0 -2.741 -0.354 -3.964 -1.059 l -17.219 -9.942 c -2.445 -1.411 -3.964 -4.042 -3.964 -6.865 V 52.249 c 0 -2.823 1.519 -5.454 3.964 -6.865 l 17.219 -9.941 c 2.445 -1.411 5.484 -1.411 7.928 0 l 17.218 9.941 c 2.445 1.411 3.964 4.042 3.964 6.865 v 19.883 c 0 2.823 -1.519 5.454 -3.964 6.865 L 48.964 88.94 C 47.741 89.645 46.371 89.998 45 89.998 z M 45 36.383 c -1.025 0 -2.05 0.264 -2.964 0.792 l -17.219 9.941 c -1.828 1.055 -2.964 3.022 -2.964 5.133 v 19.883 c 0 2.111 1.136 4.078 2.964 5.133 l 17.219 9.942 c 1.829 1.056 4.101 1.058 5.928 0 l 17.218 -9.942 c 1.828 -1.055 2.964 -3.022 2.964 -5.133 V 52.249 c 0 -2.111 -1.136 -4.078 -2.964 -5.133 l -17.218 -9.941 C 47.05 36.647 46.024 36.383 45 36.383 z" style="stroke: none; stroke-width: 1; stroke-dasharray: none; stroke-linecap: butt; stroke-linejoin: miter; stroke-miterlimit: 10; fill: rgb(0,0,0); fill-rule: nonzero; opacity: 1;" transform=" matrix(1 0 0 1 0 0) " stroke-linecap="round" />
	<path d="M 36.686 70.851 c -0.339 0 -0.664 -0.174 -0.85 -0.473 l -7.66 -12.341 v 11.814 c 0 0.553 -0.448 1 -1 1 c -0.552 0 -1 -0.447 -1 -1 V 54.531 c 0 -0.446 0.296 -0.839 0.726 -0.962 c 0.431 -0.121 0.888 0.056 1.124 0.435 l 7.66 12.341 V 54.531 c 0 -0.553 0.448 -1 1 -1 s 1 0.447 1 1 v 15.321 c 0 0.446 -0.296 0.839 -0.726 0.962 C 36.869 70.839 36.777 70.851 36.686 70.851 z" style="stroke: none; stroke-width: 1; stroke-dasharray: none; stroke-linecap: butt; stroke-linejoin: miter; stroke-miterlimit: 10; fill: rgb(0,0,0); fill-rule: nonzero; opacity: 1;" transform=" matrix(1 0 0 1 0 0) " stroke-linecap="round" />
	<path d="M 42.626 70.851 c -0.552 0 -1 -0.447 -1 -1 V 54.531 c 0 -0.553 0.448 -1 1 -1 h 6.792 c 0.553 0 1 0.447 1 1 c 0 0.553 -0.447 1 -1 1 h -5.792 v 14.321 C 43.626 70.404 43.179 70.851 42.626 70.851 z" style="stroke: none; stroke-width: 1; stroke-dasharray: none; stroke-linecap: butt; stroke-linejoin: miter; stroke-miterlimit: 10; fill: rgb(0,0,0); fill-rule: nonzero; opacity: 1;" transform=" matrix(1 0 0 1 0 0) " stroke-linecap="round" />
	<path d="M 48.026 63.191 h -5.4 c -0.552 0 -1 -0.447 -1 -1 c 0 -0.553 0.448 -1 1 -1 h 5.4 c 0.553 0 1 0.447 1 1 C 49.026 62.744 48.579 63.191 48.026 63.191 z" style="stroke: none; stroke-width: 1; stroke-dasharray: none; stroke-linecap: butt; stroke-linejoin: miter; stroke-miterlimit: 10; fill: rgb(0,0,0); fill-rule: nonzero; opacity: 1;" transform=" matrix(1 0 0 1 0 0) " stroke-linecap="round" />
	<path d="M 62.824 55.531 h -8.707 c -0.553 0 -1 -0.447 -1 -1 c 0 -0.553 0.447 -1 1 -1 h 8.707 c 0.553 0 1 0.447 1 1 C 63.824 55.083 63.377 55.531 62.824 55.531 z" style="stroke: none; stroke-width: 1; stroke-dasharray: none; stroke-linecap: butt; stroke-linejoin: miter; stroke-miterlimit: 10; fill: rgb(0,0,0); fill-rule: nonzero; opacity: 1;" transform=" matrix(1 0 0 1 0 0) " stroke-linecap="round" />
	<path d="M 58.47 70.851 c -0.553 0 -1 -0.447 -1 -1 V 54.531 c 0 -0.553 0.447 -1 1 -1 c 0.553 0 1 0.447 1 1 v 15.321 C 59.47 70.404 59.023 70.851 58.47 70.851 z" style="stroke: none; stroke-width: 1; stroke-dasharray: none; stroke-linecap: butt; stroke-linejoin: miter; stroke-miterlimit: 10; fill: rgb(0,0,0); fill-rule: nonzero; opacity: 1;" transform=" matrix(1 0 0 1 0 0) " stroke-linecap="round" />
</g>
</svg>