<svg xmlns="http://www.w3.org/2000/svg" xmlns:xlink="http://www.w3.org/1999/xlink" version="1.1" width="256" height="256" viewBox="0 0 256 256" xml:space="preserve">

<defs>
</defs>
<g style="stroke: none; stroke-width: 0; stroke-dasharray: none; stroke-linecap: butt; stroke-linejoin: miter; stroke-miterlimit: 10; fill: none; fill-rule: nonzero; opacity: 1;" transform="translate(1.4065934065934016 1.4065934065934016) scale(2.81 2.81)" >
	<path d="M 89.855 79.288 L 86.12 66.513 c -0.44 -1.502 -1.841 -2.552 -3.406 -2.552 h -7.753 c 0.386 -0.786 0.481 -1.68 0.228 -2.544 l -3.736 -12.774 c -0.439 -1.503 -1.84 -2.552 -3.405 -2.552 h -17.51 c -1.656 0 -3.077 1.127 -3.455 2.74 l -2.181 9.323 l -2.782 -9.512 c -0.439 -1.503 -1.84 -2.552 -3.406 -2.552 H 21.205 c -1.657 0 -3.078 1.127 -3.455 2.74 l -2.989 12.773 c -0.189 0.805 -0.089 1.631 0.265 2.356 H 6.538 c -1.657 0 -3.078 1.127 -3.455 2.74 L 0.095 79.474 c -0.249 1.062 -0.003 2.159 0.674 3.014 c 0.677 0.854 1.69 1.344 2.78 1.344 h 24.234 c 0.984 0 1.882 -0.413 2.548 -1.113 c 0.667 0.701 1.571 1.113 2.551 1.113 h 24.234 c 0.984 0 1.882 -0.413 2.548 -1.113 c 0.668 0.7 1.571 1.113 2.55 1.113 H 86.45 c 1.128 0 2.163 -0.518 2.84 -1.421 C 89.965 81.508 90.172 80.37 89.855 79.288 z M 46.042 62.06 l 2.988 -12.772 c 0.165 -0.704 0.785 -1.196 1.508 -1.196 h 17.51 c 0.684 0 1.294 0.457 1.485 1.112 l 3.736 12.774 c 0.139 0.473 0.048 0.97 -0.247 1.363 c -0.296 0.395 -0.747 0.62 -1.239 0.62 h -6.578 H 53.381 H 47.55 c -0.476 0 -0.918 -0.214 -1.214 -0.587 C 46.041 63.003 45.934 62.523 46.042 62.06 z M 59.568 76.025 l -2.782 -9.511 c -0.056 -0.192 -0.129 -0.377 -0.215 -0.553 h 5.451 c -0.113 0.234 -0.211 0.478 -0.272 0.74 L 59.568 76.025 z M 17.003 63.376 c -0.295 -0.373 -0.403 -0.853 -0.294 -1.315 l 2.989 -12.773 c 0.165 -0.704 0.785 -1.195 1.508 -1.195 h 17.509 c 0.684 0 1.294 0.457 1.486 1.112 l 3.736 12.774 c 0.138 0.473 0.048 0.97 -0.247 1.363 c -0.295 0.395 -0.747 0.62 -1.239 0.62 h -6.579 H 24.048 h -5.831 C 17.741 63.962 17.299 63.748 17.003 63.376 z M 30.235 76.026 l -2.782 -9.511 c -0.056 -0.192 -0.129 -0.377 -0.215 -0.553 h 5.451 c -0.113 0.234 -0.211 0.478 -0.273 0.74 L 30.235 76.026 z M 29.023 81.212 c -0.295 0.395 -0.747 0.62 -1.239 0.62 H 3.55 c -0.476 0 -0.918 -0.214 -1.213 -0.586 c -0.295 -0.373 -0.402 -0.852 -0.294 -1.315 l 2.989 -12.773 c 0.165 -0.704 0.784 -1.195 1.507 -1.195 h 11.678 h 5.831 c 0.683 0 1.294 0.458 1.486 1.113 l 3.736 12.774 C 29.408 80.321 29.318 80.818 29.023 81.212 z M 58.355 81.212 c -0.295 0.395 -0.746 0.62 -1.238 0.62 H 32.883 c -0.476 0 -0.918 -0.214 -1.213 -0.586 c -0.295 -0.373 -0.403 -0.853 -0.294 -1.315 l 2.989 -12.773 c 0.165 -0.703 0.785 -1.195 1.508 -1.195 h 6.579 h 5.1 h 5.831 c 0.684 0 1.294 0.458 1.485 1.113 l 3.736 12.774 C 58.741 80.321 58.651 80.818 58.355 81.212 z M 87.688 81.212 c -0.295 0.395 -0.746 0.62 -1.238 0.62 H 62.216 c -0.476 0 -0.918 -0.214 -1.213 -0.587 c -0.296 -0.372 -0.403 -0.852 -0.295 -1.314 l 2.989 -12.773 c 0.165 -0.704 0.784 -1.195 1.508 -1.195 h 6.578 h 10.931 c 0.684 0 1.295 0.458 1.486 1.113 l 3.735 12.774 C 88.074 80.321 87.984 80.818 87.688 81.212 z" style="stroke: none; stroke-width: 1; stroke-dasharray: none; stroke-linecap: butt; stroke-linejoin: miter; stroke-miterlimit: 10; fill: rgb(0,0,0); fill-rule: nonzero; opacity: 1;" transform=" matrix(1 0 0 1 0 0) " stroke-linecap="round" />
	<path d="M 14.733 42.298 c -0.31 0 -0.614 -0.143 -0.81 -0.412 L 7.23 32.674 c -0.156 -0.215 -0.22 -0.482 -0.179 -0.744 c 0.042 -0.262 0.186 -0.497 0.4 -0.653 l 28.842 -20.954 c 0.448 -0.324 1.072 -0.225 1.397 0.221 l 9.757 13.428 l 18.012 -13.086 l -2.201 -3.029 c -0.221 -0.303 -0.253 -0.705 -0.084 -1.04 c 0.17 -0.334 0.512 -0.546 0.887 -0.548 l 17.895 -0.101 c 0.292 0.024 0.626 0.151 0.814 0.412 c 0.189 0.261 0.242 0.597 0.141 0.902 l -5.625 16.989 c -0.118 0.356 -0.425 0.616 -0.796 0.674 c -0.366 0.058 -0.742 -0.098 -0.962 -0.4 l -2.201 -3.029 L 45.293 42.083 c -0.215 0.156 -0.484 0.222 -0.744 0.179 c -0.262 -0.042 -0.497 -0.186 -0.653 -0.4 L 34.14 28.434 L 15.32 42.107 C 15.142 42.236 14.936 42.298 14.733 42.298 z M 9.436 32.308 l 5.517 7.594 l 18.821 -13.674 c 0.214 -0.156 0.483 -0.222 0.744 -0.179 c 0.262 0.042 0.497 0.186 0.653 0.4 l 9.756 13.428 L 72.959 19.51 c 0.447 -0.324 1.072 -0.226 1.396 0.221 l 1.644 2.262 l 4.575 -13.817 L 66.02 8.258 l 1.643 2.261 c 0.156 0.215 0.221 0.482 0.179 0.744 c -0.041 0.262 -0.185 0.497 -0.399 0.653 l -19.63 14.262 c -0.447 0.325 -1.072 0.225 -1.396 -0.221 l -9.757 -13.428 L 9.436 32.308 z" style="stroke: none; stroke-width: 1; stroke-dasharray: none; stroke-linecap: butt; stroke-linejoin: miter; stroke-miterlimit: 10; fill: rgb(0,0,0); fill-rule: nonzero; opacity: 1;" transform=" matrix(1 0 0 1 0 0) " stroke-linecap="round" />
</g>
</svg>