<?xml version="1.0" encoding="UTF-8"?>
<!DOCTYPE svg PUBLIC "-//W3C//DTD SVG 1.1//EN" "http://www.w3.org/Graphics/SVG/1.1/DTD/svg11.dtd">
<svg xmlns="http://www.w3.org/2000/svg" version="1.1" width="200px" height="200px" style="shape-rendering:geometricPrecision; text-rendering:geometricPrecision; image-rendering:optimizeQuality; fill-rule:evenodd; clip-rule:evenodd" xmlns:xlink="http://www.w3.org/1999/xlink">
<g><path style="opacity:1" fill="#fefffe" d="M -0.5,-0.5 C 66.1667,-0.5 132.833,-0.5 199.5,-0.5C 199.5,66.1667 199.5,132.833 199.5,199.5C 132.833,199.5 66.1667,199.5 -0.5,199.5C -0.5,132.833 -0.5,66.1667 -0.5,-0.5 Z"/></g>
<g><path style="opacity:1" fill="#000000" d="M 12.5,12.5 C 26.5,12.5 40.5,12.5 54.5,12.5C 54.5,26.5 54.5,40.5 54.5,54.5C 40.5,54.5 26.5,54.5 12.5,54.5C 12.5,40.5 12.5,26.5 12.5,12.5 Z"/></g>
<g><path style="opacity:1" fill="#000000" d="M 72.5,18.5 C 70.5,18.5 68.5,18.5 66.5,18.5C 66.5,16.5 66.5,14.5 66.5,12.5C 68.5,12.5 70.5,12.5 72.5,12.5C 72.5,14.5 72.5,16.5 72.5,18.5 Z"/></g>
<g><path style="opacity:1" fill="#000000" d="M 96.5,18.5 C 100.5,18.5 104.5,18.5 108.5,18.5C 108.5,16.5 108.5,14.5 108.5,12.5C 114.5,12.5 120.5,12.5 126.5,12.5C 126.5,14.5 126.5,16.5 126.5,18.5C 128.5,18.5 130.5,18.5 132.5,18.5C 132.5,20.5 132.5,22.5 132.5,24.5C 130.5,24.5 128.5,24.5 126.5,24.5C 126.5,26.5 126.5,28.5 126.5,30.5C 128.5,30.5 130.5,30.5 132.5,30.5C 132.5,32.5 132.5,34.5 132.5,36.5C 128.5,36.5 124.5,36.5 120.5,36.5C 120.5,38.5 120.5,40.5 120.5,42.5C 118.5,42.5 116.5,42.5 114.5,42.5C 114.5,38.5 114.5,34.5 114.5,30.5C 112.5,30.5 110.5,30.5 108.5,30.5C 108.5,32.5 108.5,34.5 108.5,36.5C 106.5,36.5 104.5,36.5 102.5,36.5C 102.5,38.5 102.5,40.5 102.5,42.5C 100.5,42.5 98.5,42.5 96.5,42.5C 96.5,40.5 96.5,38.5 96.5,36.5C 94.5,36.5 92.5,36.5 90.5,36.5C 90.5,34.5 90.5,32.5 90.5,30.5C 88.5,30.5 86.5,30.5 84.5,30.5C 84.5,32.5 84.5,34.5 84.5,36.5C 82.5,36.5 80.5,36.5 78.5,36.5C 78.5,38.5 78.5,40.5 78.5,42.5C 76.5,42.5 74.5,42.5 72.5,42.5C 72.5,40.5 72.5,38.5 72.5,36.5C 70.5,36.5 68.5,36.5 66.5,36.5C 66.5,34.5 66.5,32.5 66.5,30.5C 64.5,30.5 62.5,30.5 60.5,30.5C 60.5,28.5 60.5,26.5 60.5,24.5C 64.5,24.5 68.5,24.5 72.5,24.5C 72.5,22.5 72.5,20.5 72.5,18.5C 76.5,18.5 80.5,18.5 84.5,18.5C 84.5,16.5 84.5,14.5 84.5,12.5C 88.5,12.5 92.5,12.5 96.5,12.5C 96.5,14.5 96.5,16.5 96.5,18.5 Z"/></g>
<g><path style="opacity:1" fill="#000000" d="M 144.5,12.5 C 158.5,12.5 172.5,12.5 186.5,12.5C 186.5,26.5 186.5,40.5 186.5,54.5C 172.5,54.5 158.5,54.5 144.5,54.5C 144.5,40.5 144.5,26.5 144.5,12.5 Z"/></g>
<g><path style="opacity:1" fill="#fefffe" d="M 18.5,18.5 C 28.5,18.5 38.5,18.5 48.5,18.5C 48.5,28.5 48.5,38.5 48.5,48.5C 38.5,48.5 28.5,48.5 18.5,48.5C 18.5,38.5 18.5,28.5 18.5,18.5 Z"/></g>
<g><path style="opacity:1" fill="#fefffe" d="M 96.5,18.5 C 96.5,20.5 96.5,22.5 96.5,24.5C 94.5,24.5 92.5,24.5 90.5,24.5C 90.5,22.5 90.5,20.5 90.5,18.5C 92.5,18.5 94.5,18.5 96.5,18.5 Z"/></g>
<g><path style="opacity:1" fill="#fefffe" d="M 150.5,18.5 C 160.5,18.5 170.5,18.5 180.5,18.5C 180.5,28.5 180.5,38.5 180.5,48.5C 170.5,48.5 160.5,48.5 150.5,48.5C 150.5,38.5 150.5,28.5 150.5,18.5 Z"/></g>
<g><path style="opacity:1" fill="#000000" d="M 24.5,24.5 C 30.5,24.5 36.5,24.5 42.5,24.5C 42.5,30.5 42.5,36.5 42.5,42.5C 36.5,42.5 30.5,42.5 24.5,42.5C 24.5,36.5 24.5,30.5 24.5,24.5 Z"/></g>
<g><path style="opacity:1" fill="#fefffe" d="M 84.5,30.5 C 82.5,30.5 80.5,30.5 78.5,30.5C 78.5,28.5 78.5,26.5 78.5,24.5C 80.5,24.5 82.5,24.5 84.5,24.5C 84.5,26.5 84.5,28.5 84.5,30.5 Z"/></g>
<g><path style="opacity:1" fill="#fefffe" d="M 108.5,30.5 C 106.5,30.5 104.5,30.5 102.5,30.5C 102.5,28.5 102.5,26.5 102.5,24.5C 104.5,24.5 106.5,24.5 108.5,24.5C 108.5,26.5 108.5,28.5 108.5,30.5 Z"/></g>
<g><path style="opacity:1" fill="#fefffe" d="M 114.5,30.5 C 114.5,28.5 114.5,26.5 114.5,24.5C 116.5,24.5 118.5,24.5 120.5,24.5C 120.5,26.5 120.5,28.5 120.5,30.5C 118.5,30.5 116.5,30.5 114.5,30.5 Z"/></g>
<g><path style="opacity:1" fill="#000000" d="M 156.5,24.5 C 162.5,24.5 168.5,24.5 174.5,24.5C 174.5,30.5 174.5,36.5 174.5,42.5C 168.5,42.5 162.5,42.5 156.5,42.5C 156.5,36.5 156.5,30.5 156.5,24.5 Z"/></g>
<g><path style="opacity:1" fill="#fefffe" d="M 84.5,30.5 C 86.5,30.5 88.5,30.5 90.5,30.5C 90.5,32.5 90.5,34.5 90.5,36.5C 92.5,36.5 94.5,36.5 96.5,36.5C 96.5,38.5 96.5,40.5 96.5,42.5C 94.5,42.5 92.5,42.5 90.5,42.5C 90.5,44.5 90.5,46.5 90.5,48.5C 88.5,48.5 86.5,48.5 84.5,48.5C 84.5,52.5 84.5,56.5 84.5,60.5C 82.5,60.5 80.5,60.5 78.5,60.5C 78.5,56.5 78.5,52.5 78.5,48.5C 76.5,48.5 74.5,48.5 72.5,48.5C 72.5,46.5 72.5,44.5 72.5,42.5C 74.5,42.5 76.5,42.5 78.5,42.5C 78.5,40.5 78.5,38.5 78.5,36.5C 80.5,36.5 82.5,36.5 84.5,36.5C 84.5,34.5 84.5,32.5 84.5,30.5 Z"/></g>
<g><path style="opacity:1" fill="#000000" d="M 72.5,42.5 C 72.5,44.5 72.5,46.5 72.5,48.5C 70.5,48.5 68.5,48.5 66.5,48.5C 66.5,46.5 66.5,44.5 66.5,42.5C 68.5,42.5 70.5,42.5 72.5,42.5 Z"/></g>
<g><path style="opacity:1" fill="#000000" d="M 96.5,42.5 C 96.5,44.5 96.5,46.5 96.5,48.5C 94.5,48.5 92.5,48.5 90.5,48.5C 90.5,46.5 90.5,44.5 90.5,42.5C 92.5,42.5 94.5,42.5 96.5,42.5 Z"/></g>
<g><path style="opacity:1" fill="#000000" d="M 132.5,48.5 C 130.5,48.5 128.5,48.5 126.5,48.5C 126.5,46.5 126.5,44.5 126.5,42.5C 128.5,42.5 130.5,42.5 132.5,42.5C 132.5,44.5 132.5,46.5 132.5,48.5 Z"/></g>
<g><path style="opacity:1" fill="#000000" d="M 66.5,48.5 C 66.5,50.5 66.5,52.5 66.5,54.5C 68.5,54.5 70.5,54.5 72.5,54.5C 72.5,52.5 72.5,50.5 72.5,48.5C 74.5,48.5 76.5,48.5 78.5,48.5C 78.5,52.5 78.5,56.5 78.5,60.5C 80.5,60.5 82.5,60.5 84.5,60.5C 84.5,64.5 84.5,68.5 84.5,72.5C 80.5,72.5 76.5,72.5 72.5,72.5C 72.5,68.5 72.5,64.5 72.5,60.5C 70.5,60.5 68.5,60.5 66.5,60.5C 66.5,64.5 66.5,68.5 66.5,72.5C 62.5,72.5 58.5,72.5 54.5,72.5C 54.5,70.5 54.5,68.5 54.5,66.5C 48.5,66.5 42.5,66.5 36.5,66.5C 36.5,64.5 36.5,62.5 36.5,60.5C 44.5,60.5 52.5,60.5 60.5,60.5C 60.5,56.5 60.5,52.5 60.5,48.5C 62.5,48.5 64.5,48.5 66.5,48.5 Z"/></g>
<g><path style="opacity:1" fill="#fefffe" d="M 66.5,48.5 C 68.5,48.5 70.5,48.5 72.5,48.5C 72.5,50.5 72.5,52.5 72.5,54.5C 70.5,54.5 68.5,54.5 66.5,54.5C 66.5,52.5 66.5,50.5 66.5,48.5 Z"/></g>
<g><path style="opacity:1" fill="#000000" d="M 90.5,48.5 C 90.5,50.5 90.5,52.5 90.5,54.5C 92.5,54.5 94.5,54.5 96.5,54.5C 96.5,52.5 96.5,50.5 96.5,48.5C 98.5,48.5 100.5,48.5 102.5,48.5C 102.5,52.5 102.5,56.5 102.5,60.5C 104.5,60.5 106.5,60.5 108.5,60.5C 108.5,56.5 108.5,52.5 108.5,48.5C 110.5,48.5 112.5,48.5 114.5,48.5C 114.5,50.5 114.5,52.5 114.5,54.5C 116.5,54.5 118.5,54.5 120.5,54.5C 120.5,58.5 120.5,62.5 120.5,66.5C 116.5,66.5 112.5,66.5 108.5,66.5C 108.5,68.5 108.5,70.5 108.5,72.5C 104.5,72.5 100.5,72.5 96.5,72.5C 96.5,68.5 96.5,64.5 96.5,60.5C 92.5,60.5 88.5,60.5 84.5,60.5C 84.5,56.5 84.5,52.5 84.5,48.5C 86.5,48.5 88.5,48.5 90.5,48.5 Z"/></g>
<g><path style="opacity:1" fill="#fefffe" d="M 90.5,48.5 C 92.5,48.5 94.5,48.5 96.5,48.5C 96.5,50.5 96.5,52.5 96.5,54.5C 94.5,54.5 92.5,54.5 90.5,54.5C 90.5,52.5 90.5,50.5 90.5,48.5 Z"/></g>
<g><path style="opacity:1" fill="#000000" d="M 126.5,48.5 C 126.5,50.5 126.5,52.5 126.5,54.5C 124.5,54.5 122.5,54.5 120.5,54.5C 120.5,52.5 120.5,50.5 120.5,48.5C 122.5,48.5 124.5,48.5 126.5,48.5 Z"/></g>
<g><path style="opacity:1" fill="#fefffe" d="M 126.5,48.5 C 128.5,48.5 130.5,48.5 132.5,48.5C 132.5,50.5 132.5,52.5 132.5,54.5C 130.5,54.5 128.5,54.5 126.5,54.5C 126.5,52.5 126.5,50.5 126.5,48.5 Z"/></g>
<g><path style="opacity:1" fill="#000000" d="M 132.5,48.5 C 134.5,48.5 136.5,48.5 138.5,48.5C 138.5,52.5 138.5,56.5 138.5,60.5C 134.5,60.5 130.5,60.5 126.5,60.5C 126.5,58.5 126.5,56.5 126.5,54.5C 128.5,54.5 130.5,54.5 132.5,54.5C 132.5,52.5 132.5,50.5 132.5,48.5 Z"/></g>
<g><path style="opacity:1" fill="#fefffe" d="M 120.5,54.5 C 122.5,54.5 124.5,54.5 126.5,54.5C 126.5,56.5 126.5,58.5 126.5,60.5C 130.5,60.5 134.5,60.5 138.5,60.5C 138.5,62.5 138.5,64.5 138.5,66.5C 136.5,66.5 134.5,66.5 132.5,66.5C 132.5,68.5 132.5,70.5 132.5,72.5C 134.5,72.5 136.5,72.5 138.5,72.5C 138.5,74.5 138.5,76.5 138.5,78.5C 140.5,78.5 142.5,78.5 144.5,78.5C 144.5,84.5 144.5,90.5 144.5,96.5C 142.5,96.5 140.5,96.5 138.5,96.5C 138.5,94.5 138.5,92.5 138.5,90.5C 136.5,90.5 134.5,90.5 132.5,90.5C 132.5,94.5 132.5,98.5 132.5,102.5C 130.5,102.5 128.5,102.5 126.5,102.5C 126.5,100.5 126.5,98.5 126.5,96.5C 124.5,96.5 122.5,96.5 120.5,96.5C 120.5,94.5 120.5,92.5 120.5,90.5C 116.5,90.5 112.5,90.5 108.5,90.5C 108.5,92.5 108.5,94.5 108.5,96.5C 110.5,96.5 112.5,96.5 114.5,96.5C 114.5,98.5 114.5,100.5 114.5,102.5C 112.5,102.5 110.5,102.5 108.5,102.5C 108.5,104.5 108.5,106.5 108.5,108.5C 114.5,108.5 120.5,108.5 126.5,108.5C 126.5,112.5 126.5,116.5 126.5,120.5C 128.5,120.5 130.5,120.5 132.5,120.5C 132.5,122.5 132.5,124.5 132.5,126.5C 126.5,126.5 120.5,126.5 114.5,126.5C 114.5,130.5 114.5,134.5 114.5,138.5C 116.5,138.5 118.5,138.5 120.5,138.5C 120.5,136.5 120.5,134.5 120.5,132.5C 124.5,132.5 128.5,132.5 132.5,132.5C 132.5,142.5 132.5,152.5 132.5,162.5C 134.5,162.5 136.5,162.5 138.5,162.5C 138.5,166.5 138.5,170.5 138.5,174.5C 134.5,174.5 130.5,174.5 126.5,174.5C 126.5,170.5 126.5,166.5 126.5,162.5C 124.5,162.5 122.5,162.5 120.5,162.5C 120.5,160.5 120.5,158.5 120.5,156.5C 122.5,156.5 124.5,156.5 126.5,156.5C 126.5,154.5 126.5,152.5 126.5,150.5C 124.5,150.5 122.5,150.5 120.5,150.5C 120.5,148.5 120.5,146.5 120.5,144.5C 116.5,144.5 112.5,144.5 108.5,144.5C 108.5,146.5 108.5,148.5 108.5,150.5C 110.5,150.5 112.5,150.5 114.5,150.5C 114.5,152.5 114.5,154.5 114.5,156.5C 112.5,156.5 110.5,156.5 108.5,156.5C 108.5,158.5 108.5,160.5 108.5,162.5C 106.5,162.5 104.5,162.5 102.5,162.5C 102.5,156.5 102.5,150.5 102.5,144.5C 100.5,144.5 98.5,144.5 96.5,144.5C 96.5,142.5 96.5,140.5 96.5,138.5C 94.5,138.5 92.5,138.5 90.5,138.5C 90.5,136.5 90.5,134.5 90.5,132.5C 88.5,132.5 86.5,132.5 84.5,132.5C 84.5,130.5 84.5,128.5 84.5,126.5C 80.5,126.5 76.5,126.5 72.5,126.5C 72.5,124.5 72.5,122.5 72.5,120.5C 70.5,120.5 68.5,120.5 66.5,120.5C 66.5,118.5 66.5,116.5 66.5,114.5C 62.5,114.5 58.5,114.5 54.5,114.5C 54.5,112.5 54.5,110.5 54.5,108.5C 58.5,108.5 62.5,108.5 66.5,108.5C 66.5,106.5 66.5,104.5 66.5,102.5C 72.5,102.5 78.5,102.5 84.5,102.5C 84.5,104.5 84.5,106.5 84.5,108.5C 88.5,108.5 92.5,108.5 96.5,108.5C 96.5,112.5 96.5,116.5 96.5,120.5C 98.5,120.5 100.5,120.5 102.5,120.5C 102.5,112.5 102.5,104.5 102.5,96.5C 100.5,96.5 98.5,96.5 96.5,96.5C 96.5,94.5 96.5,92.5 96.5,90.5C 94.5,90.5 92.5,90.5 90.5,90.5C 90.5,88.5 90.5,86.5 90.5,84.5C 88.5,84.5 86.5,84.5 84.5,84.5C 84.5,86.5 84.5,88.5 84.5,90.5C 82.5,90.5 80.5,90.5 78.5,90.5C 78.5,92.5 78.5,94.5 78.5,96.5C 74.5,96.5 70.5,96.5 66.5,96.5C 66.5,94.5 66.5,92.5 66.5,90.5C 64.5,90.5 62.5,90.5 60.5,90.5C 60.5,86.5 60.5,82.5 60.5,78.5C 58.5,78.5 56.5,78.5 54.5,78.5C 54.5,76.5 54.5,74.5 54.5,72.5C 58.5,72.5 62.5,72.5 66.5,72.5C 66.5,74.5 66.5,76.5 66.5,78.5C 68.5,78.5 70.5,78.5 72.5,78.5C 72.5,76.5 72.5,74.5 72.5,72.5C 76.5,72.5 80.5,72.5 84.5,72.5C 84.5,68.5 84.5,64.5 84.5,60.5C 88.5,60.5 92.5,60.5 96.5,60.5C 96.5,64.5 96.5,68.5 96.5,72.5C 100.5,72.5 104.5,72.5 108.5,72.5C 108.5,70.5 108.5,68.5 108.5,66.5C 112.5,66.5 116.5,66.5 120.5,66.5C 120.5,62.5 120.5,58.5 120.5,54.5 Z"/></g>
<g><path style="opacity:1" fill="#000000" d="M 48.5,78.5 C 48.5,80.5 48.5,82.5 48.5,84.5C 50.5,84.5 52.5,84.5 54.5,84.5C 54.5,82.5 54.5,80.5 54.5,78.5C 56.5,78.5 58.5,78.5 60.5,78.5C 60.5,82.5 60.5,86.5 60.5,90.5C 54.5,90.5 48.5,90.5 42.5,90.5C 42.5,88.5 42.5,86.5 42.5,84.5C 38.5,84.5 34.5,84.5 30.5,84.5C 30.5,88.5 30.5,92.5 30.5,96.5C 28.5,96.5 26.5,96.5 24.5,96.5C 24.5,94.5 24.5,92.5 24.5,90.5C 22.5,90.5 20.5,90.5 18.5,90.5C 18.5,92.5 18.5,94.5 18.5,96.5C 16.5,96.5 14.5,96.5 12.5,96.5C 12.5,90.5 12.5,84.5 12.5,78.5C 14.5,78.5 16.5,78.5 18.5,78.5C 18.5,76.5 18.5,74.5 18.5,72.5C 20.5,72.5 22.5,72.5 24.5,72.5C 24.5,70.5 24.5,68.5 24.5,66.5C 20.5,66.5 16.5,66.5 12.5,66.5C 12.5,64.5 12.5,62.5 12.5,60.5C 18.5,60.5 24.5,60.5 30.5,60.5C 30.5,64.5 30.5,68.5 30.5,72.5C 32.5,72.5 34.5,72.5 36.5,72.5C 36.5,74.5 36.5,76.5 36.5,78.5C 40.5,78.5 44.5,78.5 48.5,78.5 Z"/></g>
<g><path style="opacity:1" fill="#fefffe" d="M 72.5,72.5 C 70.5,72.5 68.5,72.5 66.5,72.5C 66.5,68.5 66.5,64.5 66.5,60.5C 68.5,60.5 70.5,60.5 72.5,60.5C 72.5,64.5 72.5,68.5 72.5,72.5 Z"/></g>
<g><path style="opacity:1" fill="#000000" d="M 138.5,60.5 C 142.5,60.5 146.5,60.5 150.5,60.5C 150.5,64.5 150.5,68.5 150.5,72.5C 148.5,72.5 146.5,72.5 144.5,72.5C 144.5,74.5 144.5,76.5 144.5,78.5C 142.5,78.5 140.5,78.5 138.5,78.5C 138.5,76.5 138.5,74.5 138.5,72.5C 136.5,72.5 134.5,72.5 132.5,72.5C 132.5,70.5 132.5,68.5 132.5,66.5C 134.5,66.5 136.5,66.5 138.5,66.5C 138.5,64.5 138.5,62.5 138.5,60.5 Z"/></g>
<g><path style="opacity:1" fill="#000000" d="M 168.5,60.5 C 170.5,60.5 172.5,60.5 174.5,60.5C 174.5,62.5 174.5,64.5 174.5,66.5C 172.5,66.5 170.5,66.5 168.5,66.5C 168.5,64.5 168.5,62.5 168.5,60.5 Z"/></g>
<g><path style="opacity:1" fill="#000000" d="M 156.5,108.5 C 160.5,108.5 164.5,108.5 168.5,108.5C 168.5,110.5 168.5,112.5 168.5,114.5C 170.5,114.5 172.5,114.5 174.5,114.5C 174.5,118.5 174.5,122.5 174.5,126.5C 170.5,126.5 166.5,126.5 162.5,126.5C 162.5,130.5 162.5,134.5 162.5,138.5C 164.5,138.5 166.5,138.5 168.5,138.5C 168.5,140.5 168.5,142.5 168.5,144.5C 166.5,144.5 164.5,144.5 162.5,144.5C 162.5,148.5 162.5,152.5 162.5,156.5C 166.5,156.5 170.5,156.5 174.5,156.5C 174.5,158.5 174.5,160.5 174.5,162.5C 164.5,162.5 154.5,162.5 144.5,162.5C 144.5,166.5 144.5,170.5 144.5,174.5C 142.5,174.5 140.5,174.5 138.5,174.5C 138.5,170.5 138.5,166.5 138.5,162.5C 136.5,162.5 134.5,162.5 132.5,162.5C 132.5,152.5 132.5,142.5 132.5,132.5C 128.5,132.5 124.5,132.5 120.5,132.5C 120.5,134.5 120.5,136.5 120.5,138.5C 118.5,138.5 116.5,138.5 114.5,138.5C 114.5,134.5 114.5,130.5 114.5,126.5C 120.5,126.5 126.5,126.5 132.5,126.5C 132.5,124.5 132.5,122.5 132.5,120.5C 130.5,120.5 128.5,120.5 126.5,120.5C 126.5,116.5 126.5,112.5 126.5,108.5C 120.5,108.5 114.5,108.5 108.5,108.5C 108.5,106.5 108.5,104.5 108.5,102.5C 110.5,102.5 112.5,102.5 114.5,102.5C 114.5,100.5 114.5,98.5 114.5,96.5C 112.5,96.5 110.5,96.5 108.5,96.5C 108.5,94.5 108.5,92.5 108.5,90.5C 112.5,90.5 116.5,90.5 120.5,90.5C 120.5,92.5 120.5,94.5 120.5,96.5C 122.5,96.5 124.5,96.5 126.5,96.5C 126.5,98.5 126.5,100.5 126.5,102.5C 128.5,102.5 130.5,102.5 132.5,102.5C 132.5,98.5 132.5,94.5 132.5,90.5C 134.5,90.5 136.5,90.5 138.5,90.5C 138.5,92.5 138.5,94.5 138.5,96.5C 140.5,96.5 142.5,96.5 144.5,96.5C 144.5,90.5 144.5,84.5 144.5,78.5C 148.5,78.5 152.5,78.5 156.5,78.5C 156.5,76.5 156.5,74.5 156.5,72.5C 158.5,72.5 160.5,72.5 162.5,72.5C 162.5,76.5 162.5,80.5 162.5,84.5C 164.5,84.5 166.5,84.5 168.5,84.5C 168.5,88.5 168.5,92.5 168.5,96.5C 172.5,96.5 176.5,96.5 180.5,96.5C 180.5,94.5 180.5,92.5 180.5,90.5C 178.5,90.5 176.5,90.5 174.5,90.5C 174.5,86.5 174.5,82.5 174.5,78.5C 176.5,78.5 178.5,78.5 180.5,78.5C 180.5,74.5 180.5,70.5 180.5,66.5C 182.5,66.5 184.5,66.5 186.5,66.5C 186.5,78.5 186.5,90.5 186.5,102.5C 184.5,102.5 182.5,102.5 180.5,102.5C 180.5,104.5 180.5,106.5 180.5,108.5C 178.5,108.5 176.5,108.5 174.5,108.5C 174.5,106.5 174.5,104.5 174.5,102.5C 168.5,102.5 162.5,102.5 156.5,102.5C 156.5,104.5 156.5,106.5 156.5,108.5 Z"/></g>
<g><path style="opacity:1" fill="#000000" d="M 54.5,72.5 C 54.5,74.5 54.5,76.5 54.5,78.5C 52.5,78.5 50.5,78.5 48.5,78.5C 48.5,76.5 48.5,74.5 48.5,72.5C 50.5,72.5 52.5,72.5 54.5,72.5 Z"/></g>
<g><path style="opacity:1" fill="#000000" d="M 66.5,72.5 C 68.5,72.5 70.5,72.5 72.5,72.5C 72.5,74.5 72.5,76.5 72.5,78.5C 70.5,78.5 68.5,78.5 66.5,78.5C 66.5,76.5 66.5,74.5 66.5,72.5 Z"/></g>
<g><path style="opacity:1" fill="#000000" d="M 96.5,72.5 C 96.5,74.5 96.5,76.5 96.5,78.5C 94.5,78.5 92.5,78.5 90.5,78.5C 90.5,76.5 90.5,74.5 90.5,72.5C 92.5,72.5 94.5,72.5 96.5,72.5 Z"/></g>
<g><path style="opacity:1" fill="#000000" d="M 108.5,72.5 C 114.5,72.5 120.5,72.5 126.5,72.5C 126.5,74.5 126.5,76.5 126.5,78.5C 124.5,78.5 122.5,78.5 120.5,78.5C 120.5,80.5 120.5,82.5 120.5,84.5C 114.5,84.5 108.5,84.5 102.5,84.5C 102.5,82.5 102.5,80.5 102.5,78.5C 104.5,78.5 106.5,78.5 108.5,78.5C 108.5,76.5 108.5,74.5 108.5,72.5 Z"/></g>
<g><path style="opacity:1" fill="#000000" d="M 174.5,78.5 C 172.5,78.5 170.5,78.5 168.5,78.5C 168.5,76.5 168.5,74.5 168.5,72.5C 170.5,72.5 172.5,72.5 174.5,72.5C 174.5,74.5 174.5,76.5 174.5,78.5 Z"/></g>
<g><path style="opacity:1" fill="#fefffe" d="M 48.5,78.5 C 50.5,78.5 52.5,78.5 54.5,78.5C 54.5,80.5 54.5,82.5 54.5,84.5C 52.5,84.5 50.5,84.5 48.5,84.5C 48.5,82.5 48.5,80.5 48.5,78.5 Z"/></g>
<g><path style="opacity:1" fill="#000000" d="M 84.5,84.5 C 82.5,84.5 80.5,84.5 78.5,84.5C 78.5,82.5 78.5,80.5 78.5,78.5C 80.5,78.5 82.5,78.5 84.5,78.5C 84.5,80.5 84.5,82.5 84.5,84.5 Z"/></g>
<g><path style="opacity:1" fill="#000000" d="M 126.5,78.5 C 128.5,78.5 130.5,78.5 132.5,78.5C 132.5,80.5 132.5,82.5 132.5,84.5C 130.5,84.5 128.5,84.5 126.5,84.5C 126.5,82.5 126.5,80.5 126.5,78.5 Z"/></g>
<g><path style="opacity:1" fill="#fefffe" d="M 42.5,90.5 C 40.5,90.5 38.5,90.5 36.5,90.5C 36.5,92.5 36.5,94.5 36.5,96.5C 34.5,96.5 32.5,96.5 30.5,96.5C 30.5,92.5 30.5,88.5 30.5,84.5C 34.5,84.5 38.5,84.5 42.5,84.5C 42.5,86.5 42.5,88.5 42.5,90.5 Z"/></g>
<g><path style="opacity:1" fill="#000000" d="M 84.5,84.5 C 86.5,84.5 88.5,84.5 90.5,84.5C 90.5,86.5 90.5,88.5 90.5,90.5C 92.5,90.5 94.5,90.5 96.5,90.5C 96.5,92.5 96.5,94.5 96.5,96.5C 98.5,96.5 100.5,96.5 102.5,96.5C 102.5,104.5 102.5,112.5 102.5,120.5C 100.5,120.5 98.5,120.5 96.5,120.5C 96.5,116.5 96.5,112.5 96.5,108.5C 92.5,108.5 88.5,108.5 84.5,108.5C 84.5,106.5 84.5,104.5 84.5,102.5C 78.5,102.5 72.5,102.5 66.5,102.5C 66.5,104.5 66.5,106.5 66.5,108.5C 62.5,108.5 58.5,108.5 54.5,108.5C 54.5,106.5 54.5,104.5 54.5,102.5C 48.5,102.5 42.5,102.5 36.5,102.5C 36.5,106.5 36.5,110.5 36.5,114.5C 34.5,114.5 32.5,114.5 30.5,114.5C 30.5,112.5 30.5,110.5 30.5,108.5C 26.5,108.5 22.5,108.5 18.5,108.5C 18.5,104.5 18.5,100.5 18.5,96.5C 20.5,96.5 22.5,96.5 24.5,96.5C 24.5,98.5 24.5,100.5 24.5,102.5C 26.5,102.5 28.5,102.5 30.5,102.5C 30.5,100.5 30.5,98.5 30.5,96.5C 32.5,96.5 34.5,96.5 36.5,96.5C 36.5,94.5 36.5,92.5 36.5,90.5C 38.5,90.5 40.5,90.5 42.5,90.5C 42.5,92.5 42.5,94.5 42.5,96.5C 48.5,96.5 54.5,96.5 60.5,96.5C 60.5,94.5 60.5,92.5 60.5,90.5C 62.5,90.5 64.5,90.5 66.5,90.5C 66.5,92.5 66.5,94.5 66.5,96.5C 70.5,96.5 74.5,96.5 78.5,96.5C 78.5,94.5 78.5,92.5 78.5,90.5C 80.5,90.5 82.5,90.5 84.5,90.5C 84.5,88.5 84.5,86.5 84.5,84.5 Z"/></g>
<g><path style="opacity:1" fill="#fefffe" d="M 150.5,84.5 C 152.5,84.5 154.5,84.5 156.5,84.5C 156.5,86.5 156.5,88.5 156.5,90.5C 158.5,90.5 160.5,90.5 162.5,90.5C 162.5,92.5 162.5,94.5 162.5,96.5C 158.5,96.5 154.5,96.5 150.5,96.5C 150.5,92.5 150.5,88.5 150.5,84.5 Z"/></g>
<g><path style="opacity:1" fill="#fefffe" d="M 24.5,96.5 C 22.5,96.5 20.5,96.5 18.5,96.5C 18.5,94.5 18.5,92.5 18.5,90.5C 20.5,90.5 22.5,90.5 24.5,90.5C 24.5,92.5 24.5,94.5 24.5,96.5 Z"/></g>
<g><path style="opacity:1" fill="#fefffe" d="M 42.5,90.5 C 48.5,90.5 54.5,90.5 60.5,90.5C 60.5,92.5 60.5,94.5 60.5,96.5C 54.5,96.5 48.5,96.5 42.5,96.5C 42.5,94.5 42.5,92.5 42.5,90.5 Z"/></g>
<g><path style="opacity:1" fill="#fefffe" d="M 24.5,96.5 C 26.5,96.5 28.5,96.5 30.5,96.5C 30.5,98.5 30.5,100.5 30.5,102.5C 28.5,102.5 26.5,102.5 24.5,102.5C 24.5,100.5 24.5,98.5 24.5,96.5 Z"/></g>
<g><path style="opacity:1" fill="#fefffe" d="M 96.5,96.5 C 96.5,98.5 96.5,100.5 96.5,102.5C 94.5,102.5 92.5,102.5 90.5,102.5C 90.5,100.5 90.5,98.5 90.5,96.5C 92.5,96.5 94.5,96.5 96.5,96.5 Z"/></g>
<g><path style="opacity:1" fill="#fefffe" d="M 54.5,108.5 C 52.5,108.5 50.5,108.5 48.5,108.5C 48.5,110.5 48.5,112.5 48.5,114.5C 46.5,114.5 44.5,114.5 42.5,114.5C 42.5,116.5 42.5,118.5 42.5,120.5C 44.5,120.5 46.5,120.5 48.5,120.5C 48.5,122.5 48.5,124.5 48.5,126.5C 42.5,126.5 36.5,126.5 30.5,126.5C 30.5,122.5 30.5,118.5 30.5,114.5C 32.5,114.5 34.5,114.5 36.5,114.5C 36.5,110.5 36.5,106.5 36.5,102.5C 42.5,102.5 48.5,102.5 54.5,102.5C 54.5,104.5 54.5,106.5 54.5,108.5 Z"/></g>
<g><path style="opacity:1" fill="#fefffe" d="M 132.5,102.5 C 136.5,102.5 140.5,102.5 144.5,102.5C 144.5,104.5 144.5,106.5 144.5,108.5C 140.5,108.5 136.5,108.5 132.5,108.5C 132.5,106.5 132.5,104.5 132.5,102.5 Z"/></g>
<g><path style="opacity:1" fill="#000000" d="M 18.5,108.5 C 18.5,110.5 18.5,112.5 18.5,114.5C 16.5,114.5 14.5,114.5 12.5,114.5C 12.5,112.5 12.5,110.5 12.5,108.5C 14.5,108.5 16.5,108.5 18.5,108.5 Z"/></g>
<g><path style="opacity:1" fill="#000000" d="M 54.5,108.5 C 54.5,110.5 54.5,112.5 54.5,114.5C 52.5,114.5 50.5,114.5 48.5,114.5C 48.5,112.5 48.5,110.5 48.5,108.5C 50.5,108.5 52.5,108.5 54.5,108.5 Z"/></g>
<g><path style="opacity:1" fill="#000000" d="M 84.5,108.5 C 84.5,112.5 84.5,116.5 84.5,120.5C 82.5,120.5 80.5,120.5 78.5,120.5C 78.5,118.5 78.5,116.5 78.5,114.5C 76.5,114.5 74.5,114.5 72.5,114.5C 72.5,112.5 72.5,110.5 72.5,108.5C 76.5,108.5 80.5,108.5 84.5,108.5 Z"/></g>
<g><path style="opacity:1" fill="#fefffe" d="M 156.5,108.5 C 156.5,110.5 156.5,112.5 156.5,114.5C 158.5,114.5 160.5,114.5 162.5,114.5C 162.5,116.5 162.5,118.5 162.5,120.5C 160.5,120.5 158.5,120.5 156.5,120.5C 156.5,122.5 156.5,124.5 156.5,126.5C 154.5,126.5 152.5,126.5 150.5,126.5C 150.5,120.5 150.5,114.5 150.5,108.5C 152.5,108.5 154.5,108.5 156.5,108.5 Z"/></g>
<g><path style="opacity:1" fill="#000000" d="M 30.5,114.5 C 30.5,118.5 30.5,122.5 30.5,126.5C 28.5,126.5 26.5,126.5 24.5,126.5C 24.5,122.5 24.5,118.5 24.5,114.5C 26.5,114.5 28.5,114.5 30.5,114.5 Z"/></g>
<g><path style="opacity:1" fill="#000000" d="M 48.5,114.5 C 48.5,116.5 48.5,118.5 48.5,120.5C 46.5,120.5 44.5,120.5 42.5,120.5C 42.5,118.5 42.5,116.5 42.5,114.5C 44.5,114.5 46.5,114.5 48.5,114.5 Z"/></g>
<g><path style="opacity:1" fill="#fefffe" d="M 48.5,114.5 C 50.5,114.5 52.5,114.5 54.5,114.5C 54.5,116.5 54.5,118.5 54.5,120.5C 52.5,120.5 50.5,120.5 48.5,120.5C 48.5,118.5 48.5,116.5 48.5,114.5 Z"/></g>
<g><path style="opacity:1" fill="#000000" d="M 54.5,114.5 C 58.5,114.5 62.5,114.5 66.5,114.5C 66.5,116.5 66.5,118.5 66.5,120.5C 68.5,120.5 70.5,120.5 72.5,120.5C 72.5,122.5 72.5,124.5 72.5,126.5C 76.5,126.5 80.5,126.5 84.5,126.5C 84.5,128.5 84.5,130.5 84.5,132.5C 78.5,132.5 72.5,132.5 66.5,132.5C 66.5,136.5 66.5,140.5 66.5,144.5C 68.5,144.5 70.5,144.5 72.5,144.5C 72.5,146.5 72.5,148.5 72.5,150.5C 70.5,150.5 68.5,150.5 66.5,150.5C 66.5,154.5 66.5,158.5 66.5,162.5C 64.5,162.5 62.5,162.5 60.5,162.5C 60.5,154.5 60.5,146.5 60.5,138.5C 56.5,138.5 52.5,138.5 48.5,138.5C 48.5,136.5 48.5,134.5 48.5,132.5C 50.5,132.5 52.5,132.5 54.5,132.5C 54.5,130.5 54.5,128.5 54.5,126.5C 52.5,126.5 50.5,126.5 48.5,126.5C 48.5,124.5 48.5,122.5 48.5,120.5C 50.5,120.5 52.5,120.5 54.5,120.5C 54.5,118.5 54.5,116.5 54.5,114.5 Z"/></g>
<g><path style="opacity:1" fill="#000000" d="M 114.5,126.5 C 112.5,126.5 110.5,126.5 108.5,126.5C 108.5,122.5 108.5,118.5 108.5,114.5C 112.5,114.5 116.5,114.5 120.5,114.5C 120.5,116.5 120.5,118.5 120.5,120.5C 118.5,120.5 116.5,120.5 114.5,120.5C 114.5,122.5 114.5,124.5 114.5,126.5 Z"/></g>
<g><path style="opacity:1" fill="#fefffe" d="M 138.5,114.5 C 140.5,114.5 142.5,114.5 144.5,114.5C 144.5,116.5 144.5,118.5 144.5,120.5C 142.5,120.5 140.5,120.5 138.5,120.5C 138.5,118.5 138.5,116.5 138.5,114.5 Z"/></g>
<g><path style="opacity:1" fill="#000000" d="M 180.5,114.5 C 182.5,114.5 184.5,114.5 186.5,114.5C 186.5,118.5 186.5,122.5 186.5,126.5C 184.5,126.5 182.5,126.5 180.5,126.5C 180.5,122.5 180.5,118.5 180.5,114.5 Z"/></g>
<g><path style="opacity:1" fill="#000000" d="M 18.5,126.5 C 16.5,126.5 14.5,126.5 12.5,126.5C 12.5,124.5 12.5,122.5 12.5,120.5C 14.5,120.5 16.5,120.5 18.5,120.5C 18.5,122.5 18.5,124.5 18.5,126.5 Z"/></g>
<g><path style="opacity:1" fill="#000000" d="M 96.5,120.5 C 96.5,122.5 96.5,124.5 96.5,126.5C 94.5,126.5 92.5,126.5 90.5,126.5C 90.5,124.5 90.5,122.5 90.5,120.5C 92.5,120.5 94.5,120.5 96.5,120.5 Z"/></g>
<g><path style="opacity:1" fill="#000000" d="M 18.5,126.5 C 20.5,126.5 22.5,126.5 24.5,126.5C 24.5,128.5 24.5,130.5 24.5,132.5C 22.5,132.5 20.5,132.5 18.5,132.5C 18.5,130.5 18.5,128.5 18.5,126.5 Z"/></g>
<g><path style="opacity:1" fill="#fefffe" d="M 24.5,126.5 C 26.5,126.5 28.5,126.5 30.5,126.5C 30.5,128.5 30.5,130.5 30.5,132.5C 28.5,132.5 26.5,132.5 24.5,132.5C 24.5,130.5 24.5,128.5 24.5,126.5 Z"/></g>
<g><path style="opacity:1" fill="#000000" d="M 30.5,126.5 C 36.5,126.5 42.5,126.5 48.5,126.5C 48.5,128.5 48.5,130.5 48.5,132.5C 46.5,132.5 44.5,132.5 42.5,132.5C 42.5,134.5 42.5,136.5 42.5,138.5C 40.5,138.5 38.5,138.5 36.5,138.5C 36.5,136.5 36.5,134.5 36.5,132.5C 34.5,132.5 32.5,132.5 30.5,132.5C 30.5,130.5 30.5,128.5 30.5,126.5 Z"/></g>
<g><path style="opacity:1" fill="#fefffe" d="M 48.5,126.5 C 50.5,126.5 52.5,126.5 54.5,126.5C 54.5,128.5 54.5,130.5 54.5,132.5C 52.5,132.5 50.5,132.5 48.5,132.5C 48.5,130.5 48.5,128.5 48.5,126.5 Z"/></g>
<g><path style="opacity:1" fill="#fefffe" d="M 66.5,132.5 C 64.5,132.5 62.5,132.5 60.5,132.5C 60.5,130.5 60.5,128.5 60.5,126.5C 62.5,126.5 64.5,126.5 66.5,126.5C 66.5,128.5 66.5,130.5 66.5,132.5 Z"/></g>
<g><path style="opacity:1" fill="#000000" d="M 108.5,126.5 C 108.5,130.5 108.5,134.5 108.5,138.5C 106.5,138.5 104.5,138.5 102.5,138.5C 102.5,134.5 102.5,130.5 102.5,126.5C 104.5,126.5 106.5,126.5 108.5,126.5 Z"/></g>
<g><path style="opacity:1" fill="#000000" d="M 18.5,132.5 C 18.5,134.5 18.5,136.5 18.5,138.5C 16.5,138.5 14.5,138.5 12.5,138.5C 12.5,136.5 12.5,134.5 12.5,132.5C 14.5,132.5 16.5,132.5 18.5,132.5 Z"/></g>
<g><path style="opacity:1" fill="#000000" d="M 24.5,132.5 C 26.5,132.5 28.5,132.5 30.5,132.5C 30.5,134.5 30.5,136.5 30.5,138.5C 28.5,138.5 26.5,138.5 24.5,138.5C 24.5,136.5 24.5,134.5 24.5,132.5 Z"/></g>
<g><path style="opacity:1" fill="#fefffe" d="M 66.5,132.5 C 72.5,132.5 78.5,132.5 84.5,132.5C 84.5,134.5 84.5,136.5 84.5,138.5C 80.5,138.5 76.5,138.5 72.5,138.5C 72.5,140.5 72.5,142.5 72.5,144.5C 70.5,144.5 68.5,144.5 66.5,144.5C 66.5,140.5 66.5,136.5 66.5,132.5 Z"/></g>
<g><path style="opacity:1" fill="#000000" d="M 84.5,132.5 C 86.5,132.5 88.5,132.5 90.5,132.5C 90.5,134.5 90.5,136.5 90.5,138.5C 92.5,138.5 94.5,138.5 96.5,138.5C 96.5,140.5 96.5,142.5 96.5,144.5C 98.5,144.5 100.5,144.5 102.5,144.5C 102.5,150.5 102.5,156.5 102.5,162.5C 104.5,162.5 106.5,162.5 108.5,162.5C 108.5,160.5 108.5,158.5 108.5,156.5C 110.5,156.5 112.5,156.5 114.5,156.5C 114.5,154.5 114.5,152.5 114.5,150.5C 112.5,150.5 110.5,150.5 108.5,150.5C 108.5,148.5 108.5,146.5 108.5,144.5C 112.5,144.5 116.5,144.5 120.5,144.5C 120.5,146.5 120.5,148.5 120.5,150.5C 122.5,150.5 124.5,150.5 126.5,150.5C 126.5,152.5 126.5,154.5 126.5,156.5C 124.5,156.5 122.5,156.5 120.5,156.5C 120.5,158.5 120.5,160.5 120.5,162.5C 118.5,162.5 116.5,162.5 114.5,162.5C 114.5,166.5 114.5,170.5 114.5,174.5C 112.5,174.5 110.5,174.5 108.5,174.5C 108.5,172.5 108.5,170.5 108.5,168.5C 104.5,168.5 100.5,168.5 96.5,168.5C 96.5,164.5 96.5,160.5 96.5,156.5C 92.5,156.5 88.5,156.5 84.5,156.5C 84.5,154.5 84.5,152.5 84.5,150.5C 82.5,150.5 80.5,150.5 78.5,150.5C 78.5,148.5 78.5,146.5 78.5,144.5C 76.5,144.5 74.5,144.5 72.5,144.5C 72.5,142.5 72.5,140.5 72.5,138.5C 76.5,138.5 80.5,138.5 84.5,138.5C 84.5,136.5 84.5,134.5 84.5,132.5 Z"/></g>
<g><path style="opacity:1" fill="#000000" d="M 168.5,138.5 C 168.5,136.5 168.5,134.5 168.5,132.5C 170.5,132.5 172.5,132.5 174.5,132.5C 174.5,134.5 174.5,136.5 174.5,138.5C 172.5,138.5 170.5,138.5 168.5,138.5 Z"/></g>
<g><path style="opacity:1" fill="#000000" d="M 180.5,174.5 C 180.5,172.5 180.5,170.5 180.5,168.5C 178.5,168.5 176.5,168.5 174.5,168.5C 174.5,166.5 174.5,164.5 174.5,162.5C 176.5,162.5 178.5,162.5 180.5,162.5C 180.5,160.5 180.5,158.5 180.5,156.5C 178.5,156.5 176.5,156.5 174.5,156.5C 174.5,154.5 174.5,152.5 174.5,150.5C 176.5,150.5 178.5,150.5 180.5,150.5C 180.5,144.5 180.5,138.5 180.5,132.5C 182.5,132.5 184.5,132.5 186.5,132.5C 186.5,146.5 186.5,160.5 186.5,174.5C 184.5,174.5 182.5,174.5 180.5,174.5 Z"/></g>
<g><path style="opacity:1" fill="#fefffe" d="M 138.5,138.5 C 144.5,138.5 150.5,138.5 156.5,138.5C 156.5,144.5 156.5,150.5 156.5,156.5C 150.5,156.5 144.5,156.5 138.5,156.5C 138.5,150.5 138.5,144.5 138.5,138.5 Z"/></g>
<g><path style="opacity:1" fill="#000000" d="M 12.5,144.5 C 26.5,144.5 40.5,144.5 54.5,144.5C 54.5,158.5 54.5,172.5 54.5,186.5C 40.5,186.5 26.5,186.5 12.5,186.5C 12.5,172.5 12.5,158.5 12.5,144.5 Z"/></g>
<g><path style="opacity:1" fill="#fefffe" d="M 72.5,144.5 C 74.5,144.5 76.5,144.5 78.5,144.5C 78.5,146.5 78.5,148.5 78.5,150.5C 76.5,150.5 74.5,150.5 72.5,150.5C 72.5,148.5 72.5,146.5 72.5,144.5 Z"/></g>
<g><path style="opacity:1" fill="#fefffe" d="M 96.5,144.5 C 96.5,146.5 96.5,148.5 96.5,150.5C 94.5,150.5 92.5,150.5 90.5,150.5C 90.5,148.5 90.5,146.5 90.5,144.5C 92.5,144.5 94.5,144.5 96.5,144.5 Z"/></g>
<g><path style="opacity:1" fill="#000000" d="M 144.5,144.5 C 146.5,144.5 148.5,144.5 150.5,144.5C 150.5,146.5 150.5,148.5 150.5,150.5C 148.5,150.5 146.5,150.5 144.5,150.5C 144.5,148.5 144.5,146.5 144.5,144.5 Z"/></g>
<g><path style="opacity:1" fill="#fefffe" d="M 18.5,150.5 C 28.5,150.5 38.5,150.5 48.5,150.5C 48.5,160.5 48.5,170.5 48.5,180.5C 38.5,180.5 28.5,180.5 18.5,180.5C 18.5,170.5 18.5,160.5 18.5,150.5 Z"/></g>
<g><path style="opacity:1" fill="#fefffe" d="M 72.5,150.5 C 72.5,154.5 72.5,158.5 72.5,162.5C 70.5,162.5 68.5,162.5 66.5,162.5C 66.5,158.5 66.5,154.5 66.5,150.5C 68.5,150.5 70.5,150.5 72.5,150.5 Z"/></g>
<g><path style="opacity:1" fill="#000000" d="M 72.5,150.5 C 74.5,150.5 76.5,150.5 78.5,150.5C 80.5,150.5 82.5,150.5 84.5,150.5C 84.5,152.5 84.5,154.5 84.5,156.5C 84.5,160.5 84.5,164.5 84.5,168.5C 80.5,168.5 76.5,168.5 72.5,168.5C 72.5,170.5 72.5,172.5 72.5,174.5C 76.5,174.5 80.5,174.5 84.5,174.5C 84.5,176.5 84.5,178.5 84.5,180.5C 78.5,180.5 72.5,180.5 66.5,180.5C 66.5,182.5 66.5,184.5 66.5,186.5C 64.5,186.5 62.5,186.5 60.5,186.5C 60.5,180.5 60.5,174.5 60.5,168.5C 62.5,168.5 64.5,168.5 66.5,168.5C 66.5,166.5 66.5,164.5 66.5,162.5C 68.5,162.5 70.5,162.5 72.5,162.5C 72.5,158.5 72.5,154.5 72.5,150.5 Z"/></g>
<g><path style="opacity:1" fill="#fefffe" d="M 78.5,150.5 C 80.5,150.5 82.5,150.5 84.5,150.5C 84.5,152.5 84.5,154.5 84.5,156.5C 82.5,156.5 80.5,156.5 78.5,156.5C 78.5,154.5 78.5,152.5 78.5,150.5 Z"/></g>
<g><path style="opacity:1" fill="#000000" d="M 24.5,156.5 C 30.5,156.5 36.5,156.5 42.5,156.5C 42.5,162.5 42.5,168.5 42.5,174.5C 36.5,174.5 30.5,174.5 24.5,174.5C 24.5,168.5 24.5,162.5 24.5,156.5 Z"/></g>
<g><path style="opacity:1" fill="#fefffe" d="M 174.5,156.5 C 176.5,156.5 178.5,156.5 180.5,156.5C 180.5,158.5 180.5,160.5 180.5,162.5C 178.5,162.5 176.5,162.5 174.5,162.5C 174.5,160.5 174.5,158.5 174.5,156.5 Z"/></g>
<g><path style="opacity:1" fill="#fefffe" d="M 120.5,162.5 C 120.5,166.5 120.5,170.5 120.5,174.5C 118.5,174.5 116.5,174.5 114.5,174.5C 114.5,170.5 114.5,166.5 114.5,162.5C 116.5,162.5 118.5,162.5 120.5,162.5 Z"/></g>
<g><path style="opacity:1" fill="#000000" d="M 120.5,162.5 C 122.5,162.5 124.5,162.5 126.5,162.5C 126.5,166.5 126.5,170.5 126.5,174.5C 130.5,174.5 134.5,174.5 138.5,174.5C 138.5,178.5 138.5,182.5 138.5,186.5C 134.5,186.5 130.5,186.5 126.5,186.5C 126.5,184.5 126.5,182.5 126.5,180.5C 122.5,180.5 118.5,180.5 114.5,180.5C 114.5,178.5 114.5,176.5 114.5,174.5C 116.5,174.5 118.5,174.5 120.5,174.5C 120.5,170.5 120.5,166.5 120.5,162.5 Z"/></g>
<g><path style="opacity:1" fill="#000000" d="M 96.5,168.5 C 96.5,170.5 96.5,172.5 96.5,174.5C 94.5,174.5 92.5,174.5 90.5,174.5C 90.5,172.5 90.5,170.5 90.5,168.5C 92.5,168.5 94.5,168.5 96.5,168.5 Z"/></g>
<g><path style="opacity:1" fill="#000000" d="M 174.5,168.5 C 174.5,170.5 174.5,172.5 174.5,174.5C 170.5,174.5 166.5,174.5 162.5,174.5C 162.5,178.5 162.5,182.5 162.5,186.5C 156.5,186.5 150.5,186.5 144.5,186.5C 144.5,184.5 144.5,182.5 144.5,180.5C 146.5,180.5 148.5,180.5 150.5,180.5C 150.5,176.5 150.5,172.5 150.5,168.5C 158.5,168.5 166.5,168.5 174.5,168.5 Z"/></g>
<g><path style="opacity:1" fill="#fefffe" d="M 174.5,168.5 C 176.5,168.5 178.5,168.5 180.5,168.5C 180.5,170.5 180.5,172.5 180.5,174.5C 178.5,174.5 176.5,174.5 174.5,174.5C 174.5,172.5 174.5,170.5 174.5,168.5 Z"/></g>
<g><path style="opacity:1" fill="#000000" d="M 174.5,174.5 C 176.5,174.5 178.5,174.5 180.5,174.5C 180.5,176.5 180.5,178.5 180.5,180.5C 182.5,180.5 184.5,180.5 186.5,180.5C 186.5,182.5 186.5,184.5 186.5,186.5C 180.5,186.5 174.5,186.5 168.5,186.5C 168.5,184.5 168.5,182.5 168.5,180.5C 170.5,180.5 172.5,180.5 174.5,180.5C 174.5,178.5 174.5,176.5 174.5,174.5 Z"/></g>
<g><path style="opacity:1" fill="#000000" d="M 84.5,180.5 C 86.5,180.5 88.5,180.5 90.5,180.5C 90.5,182.5 90.5,184.5 90.5,186.5C 88.5,186.5 86.5,186.5 84.5,186.5C 84.5,184.5 84.5,182.5 84.5,180.5 Z"/></g>
<g><path style="opacity:1" fill="#000000" d="M 114.5,180.5 C 114.5,182.5 114.5,184.5 114.5,186.5C 110.5,186.5 106.5,186.5 102.5,186.5C 102.5,184.5 102.5,182.5 102.5,180.5C 106.5,180.5 110.5,180.5 114.5,180.5 Z"/></g>
</svg>
