<svg xmlns="http://www.w3.org/2000/svg" xmlns:xlink="http://www.w3.org/1999/xlink" version="1.1" width="256" height="256" viewBox="0 0 256 256" xml:space="preserve">

<defs>
</defs>
<g style="stroke: none; stroke-width: 0; stroke-dasharray: none; stroke-linecap: butt; stroke-linejoin: miter; stroke-miterlimit: 10; fill: none; fill-rule: nonzero; opacity: 1;" transform="translate(1.4065934065934016 1.4065934065934016) scale(2.81 2.81)" >
	<path d="M 89.768 64.035 c -0.775 -2.538 -3.332 -4.099 -5.937 -3.637 c -3.978 0.708 -8.365 1.862 -13.01 3.084 c -2.416 0.635 -4.898 1.284 -7.36 1.876 c -0.886 -4.06 -4.431 -7.098 -8.679 -7.241 l -1.914 -0.064 c -2.956 0 -6.166 -1.138 -9.269 -2.238 c -3.084 -1.093 -6.273 -2.224 -9.232 -2.224 c -4.427 0 -9.764 0.709 -15.785 5.971 c -0.497 0.434 -1.135 0.631 -1.724 0.666 l -1.33 -0.06 v -3.436 c 0 -0.553 -0.448 -1 -1 -1 H 1 c -0.552 0 -1 0.447 -1 1 v 26.95 c 0 0.553 0.448 1 1 1 h 13.527 c 0.552 0 1 -0.447 1 -1 v -3.94 h 4.814 c 1.61 0 3.225 0.178 4.798 0.528 l 14.401 3.211 c 1.29 0.288 2.61 0.434 3.931 0.434 c 0.088 0 0.176 -0.001 0.264 -0.002 l 7.97 -0.115 c 2.377 -0.035 4.688 -0.529 6.866 -1.465 l 28.247 -11.93 C 89.287 69.341 90.555 66.603 89.768 64.035 z M 13.528 82.681 H 2 v -24.95 h 11.527 V 82.681 z M 86.035 68.562 l -28.247 11.93 c -1.942 0.834 -3.999 1.273 -6.112 1.305 l -7.97 0.115 c -1.253 0.016 -2.507 -0.111 -3.729 -0.383 l -14.401 -3.211 c -1.716 -0.383 -3.477 -0.577 -5.233 -0.577 h -4.814 V 62.169 l 1.277 0.057 c 1.116 -0.016 2.227 -0.403 3.093 -1.159 c 5.524 -4.826 10.415 -5.477 14.47 -5.477 c 2.615 0 5.504 1.024 8.563 2.109 c 3.263 1.156 6.635 2.353 9.901 2.352 c 0.001 0 0.002 0 0.002 0 l 1.88 0.063 c 3.336 0.113 6.118 2.505 6.802 5.698 c -8.467 1.918 -16.393 2.853 -20.052 -0.504 c -0.407 -0.373 -1.04 -0.345 -1.413 0.062 c -0.374 0.407 -0.346 1.039 0.061 1.413 c 5.798 5.317 18.721 1.92 31.218 -1.368 c 4.603 -1.211 8.952 -2.354 12.85 -3.049 c 1.618 -0.288 3.195 0.68 3.676 2.253 C 88.343 66.212 87.558 67.907 86.035 68.562 z" style="stroke: none; stroke-width: 1; stroke-dasharray: none; stroke-linecap: butt; stroke-linejoin: miter; stroke-miterlimit: 10; fill: rgb(0,0,0); fill-rule: nonzero; opacity: 1;" transform=" matrix(1 0 0 1 0 0) " stroke-linecap="round" />
	<path d="M 69.837 46.879 l -1.496 -0.547 c -0.57 -0.167 -1.017 -0.58 -1.224 -1.133 c -0.176 -0.468 -0.158 -0.976 0.048 -1.431 c 0.207 -0.455 0.579 -0.802 1.047 -0.977 c 0.466 -0.177 0.977 -0.159 1.431 0.048 c 0.454 0.207 0.802 0.578 0.977 1.046 c 0.194 0.518 0.771 0.776 1.288 0.585 c 0.517 -0.194 0.778 -0.771 0.585 -1.288 c -0.363 -0.968 -1.081 -1.737 -2.022 -2.165 c -0.225 -0.103 -0.458 -0.18 -0.693 -0.237 v -0.711 c 0 -0.552 -0.447 -1 -1 -1 s -1 0.448 -1 1 v 0.776 c -0.089 0.026 -0.18 0.039 -0.268 0.072 c -1.998 0.75 -3.014 2.985 -2.265 4.983 c 0.431 1.148 1.354 2.004 2.472 2.33 l 1.496 0.547 c 0.57 0.167 1.017 0.58 1.224 1.134 c 0.176 0.468 0.158 0.976 -0.048 1.431 c -0.207 0.454 -0.579 0.802 -1.047 0.977 c -0.466 0.175 -0.976 0.157 -1.431 -0.048 c -0.454 -0.207 -0.802 -0.579 -0.977 -1.047 c -0.194 -0.518 -0.771 -0.775 -1.288 -0.585 c -0.517 0.194 -0.778 0.771 -0.585 1.288 c 0.363 0.968 1.081 1.736 2.022 2.164 c 0.225 0.102 0.458 0.173 0.693 0.23 v 0.718 c 0 0.553 0.447 1 1 1 s 1 -0.447 1 -1 v -0.774 c 0.089 -0.026 0.18 -0.041 0.268 -0.074 c 1.998 -0.75 3.014 -2.984 2.265 -4.982 C 71.878 48.061 70.954 47.204 69.837 46.879 z" style="stroke: none; stroke-width: 1; stroke-dasharray: none; stroke-linecap: butt; stroke-linejoin: miter; stroke-miterlimit: 10; fill: rgb(0,0,0); fill-rule: nonzero; opacity: 1;" transform=" matrix(1 0 0 1 0 0) " stroke-linecap="round" />
	<path d="M 69.776 32.885 v -3.202 c 0.339 0.074 0.692 0.121 1.064 0.121 c 1.67 0 3.622 -0.732 5.377 -2.111 c 2.741 -2.154 4.064 -5.149 3.217 -7.284 c -0.071 -0.18 -0.193 -0.334 -0.352 -0.447 c -1.873 -1.328 -5.095 -0.751 -7.838 1.402 c -0.556 0.437 -1.036 0.914 -1.469 1.405 v -3.665 c 1.81 -1.008 3.023 -3.624 3.023 -6.716 c 0 -3.486 -1.538 -6.377 -3.739 -7.029 c -0.186 -0.055 -0.383 -0.055 -0.568 0 c -2.202 0.652 -3.74 3.543 -3.74 7.029 c 0 3.093 1.214 5.708 3.024 6.717 v 3.666 c -0.433 -0.492 -0.914 -0.969 -1.47 -1.406 c -2.742 -2.155 -5.965 -2.73 -7.837 -1.402 c -0.158 0.112 -0.28 0.267 -0.352 0.447 c -0.848 2.135 0.476 5.13 3.216 7.284 c 1.756 1.378 3.708 2.111 5.378 2.111 c 0.372 0 0.725 -0.047 1.064 -0.121 v 3.202 c -7.65 0.518 -13.721 6.89 -13.721 14.67 c 0 1.803 0.322 3.564 0.959 5.236 c 0.196 0.517 0.773 0.777 1.29 0.579 c 0.517 -0.196 0.775 -0.774 0.579 -1.29 c -0.55 -1.444 -0.828 -2.967 -0.828 -4.525 c 0 -7.014 5.706 -12.721 12.721 -12.721 s 12.721 5.706 12.721 12.721 c 0 3.644 -1.567 7.118 -4.3 9.534 c -0.414 0.365 -0.453 0.997 -0.087 1.411 c 0.197 0.224 0.473 0.338 0.749 0.338 c 0.235 0 0.472 -0.083 0.662 -0.251 c 3.162 -2.795 4.976 -6.815 4.976 -11.032 C 83.497 39.775 77.427 33.403 69.776 32.885 z M 72.481 22.937 c 1.996 -1.568 4.094 -1.964 5.177 -1.493 c 0.203 1.161 -0.679 3.107 -2.677 4.676 c -1.997 1.569 -4.093 1.964 -5.176 1.493 C 69.602 26.453 70.484 24.507 72.481 22.937 z M 67.747 27.613 c -1.083 0.471 -3.179 0.076 -5.177 -1.493 c -1.997 -1.569 -2.879 -3.516 -2.676 -4.676 c 1.083 -0.472 3.18 -0.075 5.176 1.494 C 67.068 24.507 67.95 26.453 67.747 27.613 z M 66.752 12.389 c 0 -2.54 0.986 -4.436 2.024 -4.993 c 1.038 0.557 2.023 2.453 2.023 4.993 s -0.985 4.436 -2.023 4.993 C 67.738 16.825 66.752 14.929 66.752 12.389 z" style="stroke: none; stroke-width: 1; stroke-dasharray: none; stroke-linecap: butt; stroke-linejoin: miter; stroke-miterlimit: 10; fill: rgb(0,0,0); fill-rule: nonzero; opacity: 1;" transform=" matrix(1 0 0 1 0 0) " stroke-linecap="round" />
	<path d="M 51.648 30.63 v -7.104 h 1 c 0.553 0 1 -0.448 1 -1 v -8.104 c 0 -0.552 -0.447 -1 -1 -1 V 6.318 c 0 -0.552 -0.447 -1 -1 -1 H 26.034 c -0.552 0 -1 0.448 -1 1 v 8.104 c 0 0.552 0.448 1 1 1 v 6.104 h -1 c -0.552 0 -1 0.448 -1 1 v 7.104 c -0.552 0 -1 0.448 -1 1 v 8.104 c 0 0.552 0.448 1 1 1 h 2 v 6.104 h -2 c -0.552 0 -1 0.447 -1 1 v 5.104 c 0 0.553 0.448 1 1 1 s 1 -0.447 1 -1 v -4.104 h 24.614 c 0.553 0 1 -0.447 1 -1 c 0 -0.553 -0.447 -1 -1 -1 H 28.034 v -6.104 h 21.615 h 3 c 0.553 0 1 -0.448 1 -1 s -0.447 -1 -1 -1 h -2 V 31.63 C 51.201 31.63 51.648 31.182 51.648 30.63 z M 27.034 7.318 h 23.614 v 6.104 H 27.034 V 7.318 z M 28.034 15.422 h 23.614 v 6.104 h -1 H 28.034 V 15.422 z M 26.034 23.526 h 1 h 22.615 v 6.104 H 26.034 V 23.526 z M 48.648 37.734 H 27.034 h -2 V 31.63 h 23.614 V 37.734 z" style="stroke: none; stroke-width: 1; stroke-dasharray: none; stroke-linecap: butt; stroke-linejoin: miter; stroke-miterlimit: 10; fill: rgb(0,0,0); fill-rule: nonzero; opacity: 1;" transform=" matrix(1 0 0 1 0 0) " stroke-linecap="round" />
</g>
</svg>